<?xml version="1.0" encoding="UTF-8"?>
<svg id="Layer_1" data-name="Layer 1" xmlns="http://www.w3.org/2000/svg" xmlns:xlink="http://www.w3.org/1999/xlink" version="1.1" viewBox="0 0 720 720">
  <defs>
    <style>
      .cls-1 {
        clip-path: url(#clippath);
      }

      .cls-2 {
        fill: none;
      }

      .cls-2, .cls-3 {
        stroke-width: 0px;
      }

      .cls-3 {
        fill: #000;
      }
    </style>
    <clipPath id="clippath">
      <rect class="cls-2" width="720" height="720"/>
    </clipPath>
  </defs>
  <g class="cls-1">
    <path class="cls-3" d="M442.5,32.9c-13.1-8.4-25-17.8-37.6-32.9h-89.5c-12.6,15.2-24.5,24.6-37.6,32.9l-34.5,22-40,137.1-125.6-125.7-11.4,11.4,108,108L0,360l174.3,174.3-108,108,11.3,11.3,125.4-125.4,40,136.9,34.5,22c11.8,7.5,22.6,16.6,32.1,26.8l71.7-212.3h-89l-4.4-28.9h44.6l7.1,7.1,64.4-64.4,20.4,20.4-36.9,37h44.3l-4.4,28.9h-29.2l-73.7,218.3h70.8l-26.9-79.9,8.4-25,33.3,98.8c9.5-10.3,20.3-19.3,32.1-26.8l34.5-22,40-137.1,125.7,125.7,11.3-11.3-108-108,174.3-174.4-174.3-174.3,108-108-11.3-11.3-125.5,125.4-39.9-136.9-34.5-22ZM257,65.2l29.4-18.8c10.6-6.7,20.3-14.5,29.3-23.3l27.6,81.7,8.4-25-21.5-63.8h60l-68.3,202.4h-29.2l-4.4,28.9h44.3l-36.9,36.9-25.3-25.3,15.5-101.6-9.9-1.5-14.3,94.3-45.3-45.3,40.6-139.6ZM185.7,523L22.7,360l163-163,75.1,75.1-88,87.9,87.9,87.9-75,75.1ZM275.5,564.1l-14.3-94,8.8-8.8,15.4,101.3-9.9,1.5ZM267.8,440.9l-80.8-80.9,80.8-80.9,80.9,80.9-80.9,80.9ZM332.5,472.7l-36.9-36.9,20.4-20.4,36.9,36.9-20.4,20.4ZM360,348.7l-44-44,64.4-64.4,7.1,7.1h44.6l-4.4-28.9h-89L404.6,23.2c8.9,8.7,18.7,16.6,29.3,23.3l29.4,18.8,40.7,139.4-45.2,45.2-14.3-94-9.9,1.5,15.4,101.3-25.6,25.6-36.9-36.9-20.4,20.4,36.9,36.9-44,44ZM371.3,360l80.8-80.8,80.9,80.8-80.8,80.8-80.9-80.8ZM444.2,564.1l-9.9-1.5,15.4-101.6,8.8,8.8-14.3,94.3ZM459.2,447.9l87.9-87.9-87.9-87.9,75.1-75.1,163,163-163,163-75.1-75.1Z"/>
  </g>
</svg>