<?xml version="1.0" encoding="UTF-8"?>
<svg id="Layer_1" data-name="Layer 1" xmlns="http://www.w3.org/2000/svg" xmlns:xlink="http://www.w3.org/1999/xlink" version="1.1" viewBox="0 0 720 720">
  <defs>
    <style>
      .cls-1 {
        clip-path: url(#clippath);
      }

      .cls-2 {
        fill: none;
      }

      .cls-2, .cls-3 {
        stroke-width: 0px;
      }

      .cls-3 {
        fill: #000;
      }
    </style>
    <clipPath id="clippath">
      <rect class="cls-2" width="720" height="720"/>
    </clipPath>
  </defs>
  <g class="cls-1">
    <path class="cls-3" d="M720,360l-13.6-3.4c-12.4-3.2-18.6-11.2-22.8-29.7l-.3-1.5c-5.8-23.4-22.1-39.1-47.1-45.4-18.4-4.6-32.7-19-37.4-37.6l-1.5-6.1c-5.1-20.6-21-36.5-41.6-41.4-4.8-1.2-9.3-3.2-13.3-6l111.3-111.3-11.3-11.3-282.4,282.4L77.7,66.3l-11.4,11.4,107.9,107.9L0,360l13.6,3.4c12.4,3.2,18.6,11.2,22.8,29.7l.3,1.5c5.8,23.4,22.1,39.1,47.1,45.4,18.4,4.6,32.7,19,37.4,37.6l1.5,6.1c5.1,20.6,21,36.5,41.6,41.4,4.8,1.2,9.3,3.2,13.3,6l-111.3,111.2,11.3,11.3,282.4-282.3,282.3,282.3,11.3-11.3-107.9-107.9,174.3-174.4ZM189,519.7c-6.2-4.8-13.4-8.2-21-10.1-14.7-3.6-26.1-14.9-29.8-29.7l-1.5-6.1c-6-24.3-24.8-43.2-49-49.3-19.1-4.8-31-16.1-35.4-33.6l-.3-1.3c-3.1-13.9-8.4-28.5-22.3-36.8l156-156,35.5,35.5-133,133-8.5-8.5-7.1,7.1,24.1,24.1,7.1-7.1-8.5-8.5,133-133,35.4,35.4-133,133-8.5-8.5-7.1,7.1,24.1,24.1,7.1-7.1-8.5-8.5,133-133,35.4,35.4-133,133-8.5-8.5-7.1,7.1,24.1,24.1,7.1-7.1-8.5-8.5,133-133,35.5,35.5-159.8,159.8ZM498.9,487.5l133-133,8.5,8.5,7.1-7.1-24.1-24.1-7.1,7.1,8.5,8.5-133,133-35.4-35.4,133-133,8.5,8.5,7.1-7.1-24.1-24.1-7.1,7.1,8.5,8.5-133,133-35.4-35.4,133-133,8.5,8.5,7.1-7.1-24.1-24.1-7.1,7.1,8.5,8.5-133,133-35.5-35.4,159.7-159.7c6.2,4.8,13.4,8.2,21,10.1,14.7,3.6,26.1,14.9,29.8,29.7l1.5,6.1c6,24.3,24.8,43.2,49,49.3,19.1,4.8,31,16.1,35.4,33.6l.3,1.3c3.1,13.9,8.4,28.5,22.3,36.8l-156,156-35.4-35.7ZM409,148.8c-3.2,3.2-2.3,5.5-1.4,7l.3.5c7.1,11.8-9.2,30.2-28,41.5-1,.6-2.1,1.2-3.1,1.8v-46.8c8.3-2.7,16.3-3.8,22.4-2.4.6-2.6,2-5,4.2-7.3s4.7-3.6,7.3-4.2c-2.5-10.6,2.7-27.2,11-41.1,4.5-7.5,10.1-14.6,16-19.9v65.4c-7.5,5.6-15.2,8-21.1,4.4l-.5-.3c-1.5-.9-3.9-1.8-7.1,1.4ZM261.3,102.1c-4.1-25.9,4.2-47.1,29.1-72C315.3,5.2,336.5-3.2,362.4,1c47.3,7.6,87.9,49.7,103.8,71.3h0c7.8,9.1,2.2,30.3-8,47.3-3,5.1-6.6,10-10.4,14.3v-63.2c-25.4-6.3-59,5.1-85.3,31.4-26.3,26.3-37.7,59.9-31.4,85.3,4.7-9.2,15.4-19,27.2-26,2.8-1.7,5.7-3.2,8.7-4.6v47.6c-13.7,5.6-27.4,7.3-34.3,1.5-21.7-15.9-63.9-56.5-71.4-103.8ZM458.8,617.9c4.1,25.9-4.2,47.1-29.1,72s-46.1,33.3-72,29.1c-47.3-7.6-87.9-49.7-103.8-71.3h0c-7.8-9.1-2.2-30.3,8-47.3,3-5.1,6.6-10,10.4-14.3v63.2c25.4,6.3,59-5.1,85.3-31.4,26.3-26.3,37.7-59.9,31.4-85.3-4.7,9.2-15.4,19-27.2,26-2.8,1.7-5.7,3.2-8.7,4.6v-47.6c13.7-5.6,27.4-7.3,34.3-1.5,21.7,15.9,63.8,56.5,71.4,103.8ZM311,571.2c3.2-3.2,2.3-5.5,1.4-7l-.3-.5c-7.1-11.8,9.2-30.2,28-41.5,1-.6,2.1-1.2,3.1-1.8v46.8c-8.3,2.7-16.3,3.8-22.4,2.4-.6,2.6-2,5-4.2,7.3-2.2,2.2-4.7,3.6-7.3,4.2,2.5,10.6-2.7,27.2-11,41.1-4.5,7.5-10.1,14.6-16,19.9v-65.4c7.5-5.6,15.2-8,21.1-4.4l.5.3c1.6.9,3.9,1.8,7.1-1.4Z"/>
  </g>
</svg>