<?xml version="1.0" encoding="UTF-8"?>
<svg id="Layer_1" data-name="Layer 1" xmlns="http://www.w3.org/2000/svg" xmlns:xlink="http://www.w3.org/1999/xlink" version="1.1" viewBox="0 0 720 720">
  <defs>
    <style>
      .cls-1 {
        clip-path: url(#clippath);
      }

      .cls-2 {
        fill: none;
      }

      .cls-2, .cls-3 {
        stroke-width: 0px;
      }

      .cls-3 {
        fill: #000;
      }
    </style>
    <clipPath id="clippath">
      <rect class="cls-2" width="720" height="720"/>
    </clipPath>
  </defs>
  <g class="cls-1">
    <path class="cls-3" d="M329,135.8c0-90.5,29.6-119.8,29.6-119.8,0,0,29.6,29.4,29.6,119.8s-23,110.1-29.6,110.1-29.6-19.7-29.6-110.1ZM218.5,351.3c2-6.3-9.5-34.3-95.5-62.2C37,261.1,0,280.3,0,280.3c0,0,18.7,37.3,104.7,65.2,86,27.9,111.7,12.1,113.8,5.8ZM270.3,517.8c-5.3-3.9-35.5-1.5-88.6,71.6-53.1,73.2-46.4,114.3-46.4,114.3,0,0,41.2-6.3,94.3-79.5,53.1-73.1,46-102.5,40.7-106.4ZM577.6,425.1c44.5,61.3,39.1,143.8-8.3,198.8-2.5-4.8-5.4-9.7-8.5-14.9,39.3-49.4,42.7-121,3.9-174.5-18.1-24.9-42.7-42.2-69.7-51.5,20.3,10.3,38.3,25.7,52.4,45.3,36.5,50.3,33.9,110-3.5,155.3,0,0,0,0,0,0-1.2-1.7-2.4-3.3-3.6-4.8,34.5-42.5,37.7-98.1,2.3-146.8-24.5-33.8-59.6-52.9-95.8-56.4,28.3,5.7,54.8,22.1,73.8,48.2,30.1,41.5,28.9,91.9,0,130.4-1.4-1.6-2.7-3.1-4-4.5,27-36.6,27.2-83.6-.9-122.3-21-29-51.9-45.4-83.6-47.7,23.6,4.4,45.9,17.9,61.6,39.6,24.8,34.2,24.1,76.7,1.1,108.9-1.6-1.4-3.1-2.7-4.7-3.9,21.3-30.1,21.8-69.7-1.3-101.5-17.8-24.5-44.3-37.8-71.4-38.6,19.2,3.2,37.1,13.6,49.4,30.5,21.1,29,18.8,67.9-3.2,94.2-2.3-.8-4.5-1.3-6.5-1.7,22-24.3,24.8-61.5,4.8-89-20.7-28.6-59-37-89.4-21.3,63.6,53.6,76,148.3,26.4,216.6-44.5,61.3-124.6,81.7-191.6,53.5,3.8-3.9,7.6-8.1,11.5-12.7,59.1,22.1,128.2,3.3,167-50.2,18.1-24.9,27-53.6,27.4-82.3-3.6,22.5-12.6,44.4-26.8,63.9-36.5,50.3-94.1,66.3-148.7,44.6,0,0,0,0,.1,0,1.2-1.7,2.4-3.3,3.5-4.9,51.1,19.7,104.9,5.5,140.3-43.2,24.5-33.8,31.9-73.1,24-108.6,3.3,28.7-4,59-23,85.1-30.1,41.5-78.4,55.9-124,40.4,1.1-1.8,2.1-3.5,3.1-5.2,43.2,14.4,87.9,0,116-38.7,21-29,27.1-63.4,19.5-94.3,3.1,23.9-2.8,49.2-18.6,70.8-24.8,34.2-65.5,46.7-103.2,34.7.8-1.9,1.5-3.8,2.2-5.6,35.2,10.9,73-.8,96.1-32.6,17.8-24.5,22.2-53.8,14.7-79.9,2.9,19.2-1.5,39.5-13.7,56.4-21.1,29-58.8,38.9-90.6,26.1,0-2.4-.1-4.7-.4-6.7,29.9,13.5,66.1,4.6,86.1-22.9,20-27.6,17.1-64.9-5-89.2-31.6,76.5-117.4,117.1-197.4,91.1-72-23.4-116.1-93.3-110.1-165.8,4.9,2.4,10.1,4.7,15.6,7-2.8,63.1,36.5,123,99.4,143.4,29.2,9.5,59.3,9.1,86.7.7-22.5,3.6-46.1,1.7-69-5.8-59.1-19.2-92.1-69-88.4-127.7h0c2,.6,3.8,1.2,5.7,1.8-3,54.7,27.2,101.5,84.4,120.1,39.7,12.9,79.3,7.8,110.6-10.7-26.2,12-57.3,14.4-88.1,4.4-48.8-15.8-77.4-57.4-76.7-105.5,2,.5,4,.9,5.9,1.3-.3,45.5,27.1,83.6,72.6,98.4,34,11.1,68.6,6.2,95.6-10.6-21.7,10.3-47.6,12.5-73.1,4.2-40.2-13-64.6-47.9-64.9-87.5,2.1.2,4.1.3,6,.4.5,36.9,23.3,69.2,60.7,81.4,28.8,9.3,58,4.5,80.5-10.7-17.4,8.7-38,10.8-57.9,4.4-34.1-11.1-55.1-43.9-52.8-78.1,2.3-.7,4.4-1.6,6.3-2.5-3.6,32.6,16,64.4,48.4,74.9,34,11.1,70.5-5.2,85.5-36.7-84.5-4.2-152-74.4-152-160s52.8-139.4,123.6-155.9c-.7,5.4-1.4,11-1.9,17-60.8,17.2-105.6,73.1-105.6,139.2s9.7,59.3,26.2,82.7c-10.3-20.3-15.8-43.3-15.8-67.5,0-62.2,37.2-108.9,94.1-123.5h0c0,2.2,0,4.1.1,6.1-52.9,14.1-88.1,57.2-88.1,117.4s17.1,77.9,44.4,101.9c-19.5-21.2-31.4-50.1-31.4-82.4,0-51.3,30.6-91.4,76.6-105.6.2,2.1.4,4.1.6,6-43.4,13.7-71.1,51.6-71.1,99.5s15.3,67.2,39.6,87.7c-16.5-17.5-26.6-41.4-26.6-68.2,0-42.2,25.6-76.3,63.1-88.8.5,2,1,4,1.5,5.9-34.9,11.8-58.6,43.6-58.6,82.9s13.6,56.6,35.1,73.2c-13.6-13.8-22-32.8-22-53.7,0-35.8,24.7-66,58-74.4,1.4,2,2.8,3.7,4.3,5.2-32.1,6.7-56.2,35.2-56.2,69.2s26,64.6,59.9,69.8c-20-80.7,25.7-164.6,105.9-190.8,72-23.4,148.8,7.2,186.4,69.4-5.3.9-10.9,2.1-16.8,3.5-34.8-52.7-101.8-78-164.7-57.6-29.2,9.5-53.3,27.5-70.5,50.4,16.1-16.1,36.3-28.5,59.2-35.9,59.1-19.2,115,1.7,146.5,51.3h0c-2,.6-3.8,1.3-5.7,1.9-29.7-46-81.6-66.2-138.8-47.6-39.7,12.9-68.8,40.4-83.2,73.8,14.1-25.1,37.9-45.4,68.7-55.3,48.8-15.8,96.3.9,124,40.2-1.9.8-3.8,1.6-5.6,2.4-26.5-37-71.1-51.7-116.6-36.9-34,11.1-59.2,35.3-71.2,64.8,11.5-21.1,31.2-38.1,56.6-46.4,40.2-13,80.4.8,103.9,32.6-1.8,1.1-3.5,2.2-5.1,3.3-22-29.6-59.5-42.3-96.9-30.2-28.8,9.3-49.6,30.5-58.8,56,9-17.2,24.4-31.1,44.3-37.6,34.1-11.1,70.4,3.1,88.6,32.2-1.5,2-2.7,3.9-3.6,5.7-16.2-28.4-50.8-42.6-83.1-32.1-33.6,10.9-53.4,44.7-47.9,78.5,70.4-43.7,164.2-26.2,213.9,42.1ZM446.9,517.8c-5.3,3.9-12.4,33.3,40.7,106.5s94.3,79.5,94.3,79.5c0,0,6.7-41.2-46.4-114.3-53.1-73.2-83.3-75.6-88.6-71.7ZM597,287.5c-86,28-97.5,55.9-95.5,62.2,2,6.3,27.8,22.1,113.8-5.8,86-28,104.7-65.2,104.7-65.2,0,0-37.1-19.1-123,8.8Z"/>
  </g>
</svg>